<?xml version="1.0" standalone="no"?>
<!DOCTYPE svg PUBLIC "-//W3C//DTD SVG 20010904//EN"
 "http://www.w3.org/TR/2001/REC-SVG-20010904/DTD/svg10.dtd">
<svg version="1.0" xmlns="http://www.w3.org/2000/svg"
 width="32" height="32" viewBox="0 0 512.000000 512.000000"
 preserveAspectRatio="xMidYMid meet">

<g transform="translate(0.000000,512.000000) scale(0.100000,-0.100000)"
fill="white" stroke="none">
<path d="M665 4278 c-309 -332 -536 -787 -619 -1242 -133 -721 35 -1438 473
-2019 70 -94 217 -257 230 -257 4 0 53 45 109 101 l101 101 -78 88 c-428 485
-628 1089 -570 1720 43 479 239 925 571 1302 l80 90 -98 99 c-54 54 -104 99
-110 99 -7 0 -47 -37 -89 -82z"/>
<path d="M4256 4261 l-99 -99 70 -79 c163 -183 255 -319 357 -525 313 -626
313 -1370 0 -1996 -102 -206 -194 -342 -356 -523 l-68 -77 102 -101 c56 -56
105 -101 109 -101 13 0 159 163 231 258 639 847 691 2004 129 2897 -111 176
-331 445 -365 445 -6 0 -56 -45 -110 -99z"/>
<path d="M1144 3848 c-173 -182 -317 -427 -402 -683 -204 -613 -88 -1279 313
-1790 35 -44 83 -99 107 -123 l44 -42 100 100 c54 55 101 102 102 104 2 3 -28
42 -68 87 -529 613 -530 1505 -1 2117 39 45 71 85 71 89 0 9 -192 203 -201
203 -3 0 -33 -28 -65 -62z"/>
<path d="M3807 3812 c-53 -53 -97 -101 -97 -105 0 -4 32 -44 71 -90 528 -610
528 -1504 -1 -2115 -39 -46 -70 -85 -68 -88 1 -2 48 -49 103 -104 l99 -100 49
47 c109 106 263 336 342 508 129 283 192 633 166 932 -34 395 -160 726 -389
1028 -49 64 -161 185 -171 185 -4 0 -50 -44 -104 -98z"/>
<path d="M1596 3393 c-207 -246 -306 -515 -306 -833 0 -320 100 -589 311 -838
l53 -63 107 107 108 108 -37 40 c-92 99 -172 247 -214 392 -20 69 -23 101 -23
254 0 153 3 185 23 254 42 147 122 293 216 394 l40 43 -105 105 c-57 57 -106
104 -110 104 -3 0 -32 -30 -63 -67z"/>
<path d="M3351 3356 l-105 -105 40 -43 c94 -101 174 -247 216 -394 20 -69 23
-101 23 -254 0 -153 -3 -185 -23 -254 -42 -146 -122 -293 -214 -392 l-38 -42
107 -106 108 -107 42 48 c24 26 72 91 108 144 148 219 215 439 215 709 0 261
-65 482 -203 692 -53 82 -154 208 -166 208 -4 0 -53 -47 -110 -104z"/>
<path d="M2450 3184 c-231 -45 -417 -211 -496 -444 -27 -78 -27 -282 0 -360
75 -222 236 -375 454 -431 209 -53 439 9 591 161 118 117 179 252 188 416 17
287 -154 536 -434 635 -57 21 -243 34 -303 23z m227 -315 c123 -46 213 -176
213 -309 0 -179 -151 -330 -330 -330 -179 0 -330 151 -330 330 0 229 231 388
447 309z"/>
</g>
</svg>
