<?xml version="1.0" standalone="no"?>
<!DOCTYPE svg PUBLIC "-//W3C//DTD SVG 20010904//EN"
 "http://www.w3.org/TR/2001/REC-SVG-20010904/DTD/svg10.dtd">
<svg version="1.0" xmlns="http://www.w3.org/2000/svg"
 width="40" height="30" viewBox="0 0 200.000000 300.000000"
 preserveAspectRatio="xMidYMid meet">

<g transform="translate(0.000000,300.000000) scale(0.100000,-0.100000)"
fill="white" stroke="none">
<path d="M183 2988 c-4 -7 -47 -132 -95 -278 l-87 -265 -1 -1037 0 -1038 365
0 365 0 0 -180 0 -180 227 0 226 0 182 180 182 180 269 0 269 0 405 404 c222
223 408 414 412 426 4 12 5 421 1 911 l-6 889 -1353 0 c-1071 0 -1354 -3
-1361 -12z m2457 -985 l0 -727 -225 -226 -225 -225 -370 -5 -370 -5 -180 -180
-180 -180 0 183 0 182 -320 0 -320 0 0 955 0 955 1095 0 1095 0 0 -727z"/>
<path d="M1190 1775 l0 -405 130 0 130 0 0 405 0 405 -130 0 -130 0 0 -405z"/>
<path d="M1917 2174 c-4 -4 -7 -187 -7 -406 l0 -398 130 0 130 0 0 395 c0 217
0 398 0 403 0 9 -244 15 -253 6z"/>
</g>
</svg>
